<svg data-cached="true" xmlns="http://www.w3.org/2000/svg" width="580" height="580" viewBox="0 0 580 580" preserveAspectRatio="xMidYMid meet"><svg id="__background" x="0" y="0" width="580" height="580" preserveAspectRatio="xMidYMid meet"><rect x="0" y="0" width="580" height="580" fill="#ffffff" stroke="none" stroke-width="0px"/></svg><g id="__padding" transform="translate(80 80)"><svg id="data" x="0" y="0" width="420" height="420" viewBox="0 0 420 420" preserveAspectRatio="xMinYMid meet"><path d="M0 0L140 0L140 140L0 140ZM200 0L240 0L240 20L260 20L260 200L240 200L240 160L200 160L200 120L220 120L220 140L240 140L240 100L220 100L220 80L200 80L200 60L240 60L240 40L220 40L220 20L200 20ZM280 0L420 0L420 140L280 140ZM20 20L20 120L120 120L120 20ZM300 20L300 120L400 120L400 20ZM40 40L100 40L100 100L40 100ZM160 40L200 40L200 60L180 60L180 80L200 80L200 100L180 100L180 160L160 160ZM320 40L380 40L380 100L320 100ZM0 160L20 160L20 200L0 200ZM40 160L140 160L140 180L100 180L100 200L80 200L80 180L40 180ZM180 160L200 160L200 180L220 180L220 200L200 200L200 220L180 220L180 240L200 240L200 260L180 260L180 280L160 280L160 240L140 240L140 220L100 220L100 200L140 200L140 180L160 180L160 200L180 200ZM280 160L380 160L380 200L400 200L400 220L380 220L380 240L360 240L360 260L380 260L380 280L400 280L400 300L380 300L380 320L340 320L340 340L360 340L360 360L380 360L380 400L340 400L340 360L300 360L300 340L320 340L320 320L260 320L260 360L240 360L240 320L220 320L220 300L240 300L240 280L220 280L220 240L240 240L240 260L260 260L260 240L280 240L280 260L320 260L320 300L360 300L360 280L340 280L340 260L320 260L320 240L300 240L300 220L320 220L320 200L360 200L360 180L320 180L320 200L300 200L300 180L280 180ZM400 180L420 180L420 200L400 200ZM40 200L80 200L80 240L60 240L60 260L20 260L20 240L40 240ZM220 200L240 200L240 220L220 220ZM260 200L280 200L280 220L260 220ZM400 220L420 220L420 240L400 240ZM120 240L140 240L140 260L120 260ZM400 260L420 260L420 280L400 280ZM0 280L140 280L140 420L0 420ZM180 280L200 280L200 300L180 300ZM260 280L260 300L280 300L280 280ZM20 300L20 400L120 400L120 300ZM160 300L180 300L180 340L200 340L200 360L240 360L240 380L160 380ZM400 300L420 300L420 320L400 320ZM40 320L100 320L100 380L40 380ZM380 320L400 320L400 340L380 340ZM260 360L280 360L280 380L260 380ZM160 400L200 400L200 420L160 420ZM220 400L240 400L240 420L220 420ZM260 400L280 400L280 420L260 420ZM300 400L320 400L320 420L300 420ZM380 400L400 400L400 420L380 420Z" fill="#000000" fill-rule="evenodd"/></svg></g></svg>